Coordinates
version=1
nRows=9
nColumns=36
inDegrees=yes

Units are S.I. units (second, meters, Newtons, ...)
If the header above contains a line with 'inDegrees', this indicates whether rotational values are in degrees (yes) or radians (no).

endheader
time	pelvis_tilt	pelvis_list	pelvis_rotation	pelvis_tx	pelvis_ty	pelvis_tz	hip_flexion_r	hip_adduction_r	hip_rotation_r	knee_angle_r	knee_angle_r_beta	ankle_angle_r	subtalar_angle_r	mtp_angle_r	hip_flexion_l	hip_adduction_l	hip_rotation_l	knee_angle_l	knee_angle_l_beta	ankle_angle_l	subtalar_angle_l	mtp_angle_l	lumbar_extension	lumbar_bending	lumbar_rotation	arm_flex_r	arm_add_r	arm_rot_r	elbow_flex_r	pro_sup_r	arm_flex_l	arm_add_l	arm_rot_l	elbow_flex_l	pro_sup_l
      0.00000000	     15.38222012	      8.57128432	     -0.40820734	      0.03025630	      0.94396687	      0.19705789	    -19.34348541	     -6.88120595	     -3.75723033	      0.20795789	      0.00362955	      3.52931871	    -29.09773199	     -5.99743459	    -22.77745216	     -0.41684915	     28.63785085	      0.25979401	      0.00453426	      1.02814062	    -34.73633780	     -5.99743459	    -40.73465339	    -10.47089575	      0.75658152	     11.98763477	     -3.90749250	     11.78861424	     31.24942639	     78.15159207	     25.24493667	     -5.85381816	     38.11855297	     23.16874514	     66.61339920
      0.01666670	      9.84297366	      6.44973740	      2.92164904	      0.03937238	      0.92525666	      0.19265153	    -15.01660668	     -4.51137976	     -2.19508119	      0.39830873	      0.00695180	      2.11642063	    -27.60932350	     -6.64077086	    -17.11781514	     -3.29829689	     31.82779580	      0.38708283	      0.00675587	      3.35869338	    -34.69806710	     -6.64077086	    -32.60155818	     -6.63521562	     -0.04941108	     10.11267807	     -4.21209387	     15.73855786	     30.04355737	     77.05719599	     23.04085237	     -6.59255375	     41.15665334	     23.76454198	     67.33906662
      0.03333330	      6.76724663	      4.81549975	      4.17404282	      0.04438161	      0.91457525	      0.19327831	    -12.33180968	     -3.07829151	     -1.45068911	      0.34554359	      0.00603087	      6.89428394	    -23.89002554	     -6.87502852	    -13.80814980	     -5.30465997	     32.16919738	      0.47171091	      0.00823291	      4.15841221	    -34.64854483	     -6.87502852	    -27.43064168	     -4.81239716	     -0.58560751	      9.64617616	     -4.56281318	     19.99678614	     28.58562220	     78.11045896	     22.29083802	     -7.23087119	     45.46707481	     22.53836285	     68.63936578
      0.05000000	      5.03920085	      3.47314440	      5.16737097	      0.04450485	      0.90857686	      0.19220761	    -10.68770889	     -1.36258125	     -0.38462141	      0.32519483	      0.00567572	      9.47966712	    -22.38705841	     -6.97913079	    -12.28723547	     -6.88345321	     32.36185506	      0.48742465	      0.00850717	      4.52367277	    -34.58572292	     -6.97913079	    -24.03667833	     -3.62815208	     -0.98074637	      9.35915109	     -4.74333992	     23.15275807	     27.09641590	     78.47198261	     21.84483150	     -7.39950762	     48.75049864	     21.20923479	     69.36852524
      0.06666670	      3.86923132	      2.04567077	      5.75660706	      0.04570142	      0.90525309	      0.19207396	     -9.43660758	      0.47284197	      0.59953093	      0.32429638	      0.00566004	     11.39997752	    -21.66578616	     -7.11356177	    -11.46148424	     -8.42058691	     32.31342266	      0.54341963	      0.00948446	      4.96686233	    -34.51493044	     -7.11356177	    -21.53867169	     -2.21297060	     -1.19918058	      9.24667841	     -5.20251332	     26.10236308	     26.43344531	     78.79071618	     21.37533902	     -7.33185357	     51.88143358	     20.28979554	     69.88069188
      0.08333330	      2.93459476	      1.12240410	      6.08639476	      0.04582512	      0.90536376	      0.19136910	     -8.32974549	      1.67725806	      1.54454175	      0.32933263	      0.00574794	     11.99674287	    -21.88581668	     -7.16123842	    -10.65748321	     -9.39978608	     32.13847774	      0.56287047	      0.00982394	      5.02433488	    -34.43586533	     -7.16123842	    -19.62290805	     -1.43169204	     -1.32342034	      9.05566917	     -5.25538272	     26.77447905	     25.70775472	     78.06512227	     20.97486693	     -7.01084586	     52.34231377	     19.30758304	     69.48052486
      0.10000000	      2.15823663	      0.24712392	      6.28267215	      0.04912746	      0.90123012	      0.19091997	     -7.46271381	      2.74585648	      2.60141183	      0.33727387	      0.00588654	     12.18660102	    -22.60606634	     -7.21533587	    -10.19258981	    -10.36610770	     31.87445248	      0.61471105	      0.01072873	      5.22886790	    -34.33585786	     -7.21533587	    -17.90326381	     -0.70636437	     -1.13673033	      8.87717090	     -5.45825530	     27.61842526	     25.03555220	     77.37393384	     20.59330886	     -6.49608998	     52.42545151	     18.42159922	     69.10272543
      0.11666670	      1.66547312	     -0.26621913	      6.34306180	      0.04871548	      0.90110340	      0.19008354	     -6.85814408	      3.32965104	      3.34203400	      0.35040167	      0.00611566	     11.99317288	    -23.57680197	     -7.27891637	     -9.73748993	    -10.88464887	     31.70921198	      0.63389622	      0.01106358	      5.28416788	    -34.24525401	     -7.27891637	    -16.81160303	     -0.17821058	     -1.41305116	      9.10704456	     -5.68365574	     29.61486034	     24.42665625	     77.35751322	     20.18451595	     -6.51629683	     53.19901807	     18.27412054	     69.31802428
      0.13333330	      1.04589322	     -0.54163128	      6.24188926	      0.04857751	      0.90295173	      0.18921819	     -6.15052014	      3.47702732	      4.05747546	      0.34933004	      0.00609696	     11.44520947	    -24.39770342	     -7.32028836	     -8.83060341	    -11.08154907	     31.48034244	      0.55659112	      0.00971435	      4.87561829	    -34.14534997	     -7.32028836	    -15.75271794	     -0.04399318	     -1.32632586	      9.09361865	     -5.78252781	     29.62264862	     24.08326417	     77.39958307	     19.90862918	     -6.15509434	     52.42332510	     17.64083022	     69.40165693
